<?xml version="1.0" encoding="UTF-8"?>
<svg width="88px" height="160px" viewBox="0 0 88 160" version="1.1" xmlns="http://www.w3.org/2000/svg" xmlns:xlink="http://www.w3.org/1999/xlink">
    <!-- Generator: Sketch 49 (51002) - http://www.bohemiancoding.com/sketch -->
    <title>cdt</title>
    <desc>Created with Sketch.</desc>
    <defs></defs>
    <g id="Page-1" stroke="none" stroke-width="1" fill="none" fill-rule="evenodd">
        <g id="Coming-Soon" transform="translate(-185.000000, -70.000000)" fill-rule="nonzero">
            <g id="cdt" transform="translate(185.000000, 70.000000)">
                <circle id="Oval" fill="#F6C500" cx="12.4179104" cy="11.8606965" r="11.7810945"></circle>
                <g id="Group" transform="translate(0.000000, 39.004975)" fill="#163D4B">
                    <path d="M12.9751244,26.0298507 C11.3034826,26.0298507 9.79104478,25.7910448 8.43781095,25.2338308 C7.08457711,24.6766169 5.97014925,23.960199 5.01492537,22.9253731 C4.05970149,21.8905473 3.34328358,20.6965174 2.86567164,19.1840796 C2.3880597,17.7512438 2.14925373,16.079602 2.14925373,14.1691542 C2.14925373,12.2587065 2.46766169,10.5870647 3.02487562,9.15422886 C3.58208955,7.72139303 4.37810945,6.44776119 5.41293532,5.41293532 C6.44776119,4.37810945 7.56218905,3.66169154 8.91542289,3.10447761 C10.2686567,2.54726368 11.7014925,2.30845771 13.2935323,2.30845771 C14.2487562,2.30845771 15.0447761,2.3880597 15.840796,2.54726368 C16.6368159,2.70646766 17.2736318,2.86567164 17.8308458,3.02487562 C18.3880597,3.1840796 18.8656716,3.42288557 19.2636816,3.58208955 C19.6616915,3.74129353 19.9004975,3.90049751 20.0597015,3.9800995 L18.8656716,7.32338308 C18.3084577,7.00497512 17.5920398,6.68656716 16.6368159,6.3681592 C15.681592,6.04975124 14.6467662,5.89054726 13.4527363,5.89054726 C12.4975124,5.89054726 11.5422886,6.04975124 10.7462687,6.3681592 C9.87064677,6.68656716 9.15422886,7.24378109 8.51741294,7.88059701 C7.88059701,8.51741294 7.40298507,9.39303483 7.08457711,10.4278607 C6.76616915,11.4626866 6.52736318,12.6567164 6.52736318,14.0099502 C6.52736318,15.2039801 6.68656716,16.318408 6.92537313,17.2736318 C7.1641791,18.3084577 7.64179104,19.1044776 8.19900498,19.9004975 C8.75621891,20.6169154 9.47263682,21.1741294 10.3482587,21.5721393 C11.2238806,21.9701493 12.2587065,22.2089552 13.4527363,22.2089552 C14.8855721,22.2089552 16.079602,22.0497512 17.0348259,21.7313433 C17.9104478,21.4129353 18.6268657,21.1741294 19.1840796,20.9353234 L20.2985075,24.278607 C20.0597015,24.4378109 19.6616915,24.5970149 19.2636816,24.8358209 C18.7860697,24.9950249 18.3084577,25.1542289 17.6716418,25.3134328 C17.0348259,25.4726368 16.39801,25.6318408 15.60199,25.7114428 C14.6467662,25.9502488 13.8507463,26.0298507 12.9751244,26.0298507 Z" id="Shape"></path>
                    <path d="M29.2139303,8.039801 C30.4875622,8.039801 31.60199,8.19900498 32.4776119,8.51741294 C33.3532338,8.8358209 34.0696517,9.31343284 34.6268657,9.87064677 C35.1840796,10.4278607 35.5024876,11.1442786 35.7412935,12.0199005 C35.9800995,12.8955224 36.0597015,13.7711443 36.0597015,14.8059701 L36.0597015,25.1542289 C35.4228856,25.3134328 34.5472637,25.4726368 33.2736318,25.6318408 C32.079602,25.7910448 30.6467662,25.8706468 29.1343284,25.8706468 C28.0995025,25.8706468 27.1442786,25.7910448 26.3482587,25.5522388 C25.4726368,25.3930348 24.7562189,25.0746269 24.199005,24.5970149 C23.5621891,24.199005 23.1641791,23.5621891 22.7661692,22.9253731 C22.4477612,22.2089552 22.2885572,21.3333333 22.2885572,20.3781095 C22.2885572,19.4228856 22.4477612,18.5472637 22.8457711,17.9104478 C23.2437811,17.2736318 23.721393,16.7164179 24.358209,16.238806 C24.9950249,15.840796 25.7910448,15.5223881 26.5870647,15.3631841 C27.4626866,15.2039801 28.3383085,15.1243781 29.2935323,15.1243781 C29.6915423,15.1243781 30.1691542,15.1243781 30.6467662,15.2039801 C31.1243781,15.2835821 31.60199,15.3631841 32.159204,15.4427861 L32.159204,14.8059701 C32.159204,14.3283582 32.079602,13.9303483 32,13.5323383 C31.920398,13.1343284 31.681592,12.7363184 31.4427861,12.4179104 C31.2039801,12.0995025 30.8059701,11.8606965 30.3283582,11.7014925 C29.8507463,11.5422886 29.2935323,11.4626866 28.6567164,11.4626866 C27.7810945,11.4626866 26.9054726,11.5422886 26.1094527,11.6218905 C25.3134328,11.7810945 24.7562189,11.9402985 24.278607,12.0995025 L23.800995,8.91542289 C24.278607,8.75621891 24.9950249,8.59701493 25.9502488,8.35820896 C27.0646766,8.11940299 28.0995025,8.039801 29.2139303,8.039801 Z M29.5323383,22.7661692 C30.7263682,22.7661692 31.681592,22.6865672 32.318408,22.6069652 L32.318408,18.2288557 C32.079602,18.1492537 31.761194,18.0696517 31.3631841,18.0696517 C30.9651741,17.9900498 30.4875622,17.9900498 30.0099502,17.9900498 C29.6119403,17.9900498 29.1343284,17.9900498 28.6567164,18.0696517 C28.1791045,18.1492537 27.7810945,18.2288557 27.4626866,18.4676617 C27.0646766,18.6268657 26.8258706,18.8656716 26.5870647,19.1840796 C26.3482587,19.5024876 26.2686567,19.9004975 26.2686567,20.3781095 C26.2686567,21.3333333 26.5870647,21.9701493 27.1442786,22.2885572 C27.7014925,22.6069652 28.4975124,22.7661692 29.5323383,22.7661692 Z" id="Shape"></path>
                    <path d="M56.278607,17.0348259 C56.278607,18.3880597 56.039801,19.6616915 55.641791,20.7761194 C55.2437811,21.8905473 54.6865672,22.8457711 53.8905473,23.5621891 C53.1741294,24.358209 52.2189055,24.9154229 51.1840796,25.3930348 C50.1492537,25.7910448 48.8756219,26.0298507 47.5223881,26.0298507 C46.2487562,26.0298507 44.9751244,25.9502488 43.7810945,25.7114428 C42.5870647,25.5522388 41.6318408,25.3134328 40.8358209,25.0746269 L40.8358209,0.955223881 L44.8159204,0.31840796 L44.8159204,9.15422886 C45.2935323,8.91542289 45.8507463,8.67661692 46.4875622,8.51741294 C47.1243781,8.35820896 47.920398,8.19900498 48.7164179,8.19900498 C49.9104478,8.19900498 50.9452736,8.43781095 51.9004975,8.8358209 C52.8557214,9.23383085 53.6517413,9.87064677 54.2885572,10.6666667 C54.9253731,11.4626866 55.4029851,12.4179104 55.721393,13.4527363 C56.119403,14.4875622 56.278607,15.681592 56.278607,17.0348259 Z M52.2985075,16.9552239 C52.2985075,15.2835821 51.9800995,13.9303483 51.2636816,12.9751244 C50.6268657,12.0199005 49.5124378,11.5422886 48.079602,11.5422886 C47.4427861,11.5422886 46.8059701,11.6218905 46.2487562,11.8606965 C45.6915423,12.0199005 45.2139303,12.2587065 44.8955224,12.4975124 L44.8955224,22.2885572 C45.2139303,22.3681592 45.5323383,22.4477612 46.0099502,22.4477612 C46.4875622,22.5273632 46.9651741,22.5273632 47.60199,22.5273632 C49.0348259,22.5273632 50.2288557,22.0497512 51.0248756,21.0149254 C51.8208955,20.0597015 52.2985075,18.7064677 52.2985075,16.9552239 Z" id="Shape"></path>
                    <path d="M75.8606965,16.9552239 C75.8606965,18.3084577 75.7014925,19.5024876 75.3034826,20.6169154 C74.9054726,21.7313433 74.3482587,22.6865672 73.6318408,23.4825871 C72.9154229,24.278607 72.039801,24.9154229 71.0049751,25.3134328 C69.9701493,25.7114428 68.8557214,25.9502488 67.6616915,25.9502488 C66.4676617,25.9502488 65.3532338,25.7114428 64.318408,25.3134328 C63.2835821,24.9154229 62.4875622,24.278607 61.7711443,23.4825871 C61.0547264,22.6865672 60.4975124,21.7313433 60.0995025,20.6169154 C59.7014925,19.5024876 59.4626866,18.3084577 59.4626866,16.9552239 C59.4626866,15.60199 59.7014925,14.4079602 60.0995025,13.2935323 C60.4975124,12.1791045 61.0547264,11.2238806 61.7711443,10.5074627 C62.4875622,9.71144279 63.3631841,9.15422886 64.39801,8.67661692 C65.4328358,8.27860697 66.4676617,8.039801 67.6616915,8.039801 C68.8557214,8.039801 69.9701493,8.27860697 71.0049751,8.67661692 C72.039801,9.07462687 72.9154229,9.71144279 73.6318408,10.5074627 C74.3482587,11.3034826 74.9054726,12.2587065 75.3034826,13.2935323 C75.6218905,14.4079602 75.8606965,15.681592 75.8606965,16.9552239 Z M71.800995,16.9552239 C71.800995,15.2835821 71.4029851,13.9303483 70.6865672,12.8955224 C69.9701493,11.9402985 68.9353234,11.3830846 67.6616915,11.3830846 C66.3880597,11.3830846 65.3532338,11.8606965 64.6368159,12.8955224 C63.920398,13.8507463 63.5223881,15.2039801 63.5223881,16.9552239 C63.5223881,18.7064677 63.920398,20.0597015 64.6368159,21.0149254 C65.3532338,22.0497512 66.3880597,22.5273632 67.6616915,22.5273632 C68.9353234,22.5273632 69.9701493,22.0497512 70.6865672,21.0149254 C71.4029851,20.0597015 71.800995,18.7064677 71.800995,16.9552239 Z" id="Shape"></path>
                    <path d="M22.0497512,43.9402985 C22.0497512,45.9303483 21.7313433,47.60199 21.1741294,49.0348259 C20.5373134,50.4676617 19.6616915,51.6616915 18.5472637,52.6965174 C17.4328358,53.6517413 16.079602,54.3681592 14.4875622,54.8457711 C12.8955224,55.3233831 11.1442786,55.5621891 9.23383085,55.5621891 C8.35820896,55.5621891 7.32338308,55.5621891 6.12935323,55.4825871 C5.01492537,55.4029851 3.90049751,55.2437811 2.86567164,55.0049751 L2.86567164,33.0348259 C3.90049751,32.7960199 5.01492537,32.6368159 6.20895522,32.5572139 C7.40298507,32.4776119 8.43781095,32.4776119 9.31343284,32.4776119 C11.2238806,32.4776119 12.9751244,32.7164179 14.4875622,33.1144279 C16.079602,33.5920398 17.4328358,34.2288557 18.5472637,35.1840796 C19.6616915,36.1393035 20.5373134,37.3333333 21.1741294,38.7661692 C21.8109453,40.278607 22.0497512,41.9502488 22.0497512,43.9402985 Z M7.00497512,51.9004975 C7.24378109,51.9004975 7.56218905,51.9004975 7.960199,51.9800995 C8.35820896,51.9800995 8.91542289,51.9800995 9.55223881,51.9800995 C12.3383085,51.9800995 14.4079602,51.2636816 15.761194,49.9104478 C17.1144279,48.4776119 17.8308458,46.5671642 17.8308458,44.0199005 C17.8308458,41.4726368 17.1940299,39.4825871 15.840796,38.1293532 C14.4875622,36.7761194 12.4179104,36.0597015 9.71144279,36.0597015 C8.51741294,36.0597015 7.64179104,36.0597015 7.08457711,36.1393035 L7.08457711,51.9004975 L7.00497512,51.9004975 Z" id="Shape"></path>
                    <path d="M31.681592,37.8109453 C32.9552239,37.8109453 34.0696517,37.9701493 34.9452736,38.2885572 C35.8208955,38.6069652 36.5373134,39.0845771 37.0945274,39.641791 C37.6517413,40.199005 37.9701493,40.9154229 38.2089552,41.7910448 C38.4477612,42.6666667 38.5273632,43.5422886 38.5273632,44.5771144 L38.5273632,54.9253731 C37.8905473,55.0845771 37.0149254,55.2437811 35.7412935,55.4029851 C34.5472637,55.5621891 33.1144279,55.641791 31.60199,55.641791 C30.5671642,55.641791 29.6119403,55.5621891 28.8159204,55.3233831 C27.9402985,55.1641791 27.2238806,54.8457711 26.6666667,54.3681592 C26.0298507,53.9701493 25.6318408,53.3333333 25.2338308,52.6965174 C24.9154229,51.9800995 24.7562189,51.1044776 24.7562189,50.1492537 C24.7562189,49.1940299 24.9154229,48.318408 25.3134328,47.681592 C25.7114428,47.0447761 26.1890547,46.4875622 26.8258706,46.0099502 C27.4626866,45.6119403 28.2587065,45.2935323 29.0547264,45.1343284 C29.9303483,44.9751244 30.8059701,44.8955224 31.761194,44.8955224 C32.159204,44.8955224 32.6368159,44.8955224 33.1144279,44.9751244 C33.5920398,45.0547264 34.0696517,45.1343284 34.6268657,45.2139303 L34.6268657,44.5771144 C34.6268657,44.0995025 34.5472637,43.7014925 34.4676617,43.3034826 C34.3880597,42.9054726 34.1492537,42.5074627 33.9104478,42.1890547 C33.6716418,41.8706468 33.2736318,41.6318408 32.7960199,41.4726368 C32.318408,41.3134328 31.761194,41.2338308 31.1243781,41.2338308 C30.2487562,41.2338308 29.3731343,41.3134328 28.5771144,41.3930348 C27.7810945,41.5522388 27.2238806,41.7114428 26.7462687,41.8706468 L26.2686567,38.6865672 C26.7462687,38.5273632 27.4626866,38.3681592 28.4179104,38.1293532 C29.5323383,37.8905473 30.5671642,37.8109453 31.681592,37.8109453 Z M32,52.5373134 C33.1940299,52.5373134 34.1492537,52.4577114 34.7860697,52.3781095 L34.7860697,48 C34.5472637,47.920398 34.2288557,47.840796 33.8308458,47.840796 C33.4328358,47.761194 32.9552239,47.761194 32.4776119,47.761194 C32.079602,47.761194 31.60199,47.761194 31.1243781,47.840796 C30.6467662,47.920398 30.2487562,48 29.9303483,48.238806 C29.5323383,48.39801 29.2935323,48.6368159 29.0547264,48.9552239 C28.8159204,49.2736318 28.7363184,49.6716418 28.7363184,50.1492537 C28.7363184,51.1044776 29.0547264,51.7412935 29.6119403,52.0597015 C30.1691542,52.3781095 30.9651741,52.5373134 32,52.5373134 Z" id="Shape"></path>
                    <path d="M56.9154229,38.2089552 C55.1641791,44.6567164 53.0945274,50.5472637 50.7860697,55.800995 C50.3880597,56.7562189 49.9104478,57.6318408 49.4328358,58.3482587 C48.9552239,59.0646766 48.4776119,59.6218905 47.920398,60.0995025 C47.3631841,60.5771144 46.7263682,60.8955224 46.0099502,61.0547264 C45.2935323,61.2935323 44.4975124,61.3731343 43.6218905,61.3731343 C42.9850746,61.3731343 42.4278607,61.2935323 41.7910448,61.2139303 C41.1542289,61.0547264 40.7562189,60.9751244 40.4378109,60.8159204 L41.1542289,57.6318408 C41.9502488,57.9502488 42.7462687,58.1094527 43.4626866,58.1094527 C44.4975124,58.1094527 45.2935323,57.8706468 45.8507463,57.3930348 C46.4079602,56.9154229 46.9651741,56.119403 47.3631841,55.0845771 C46.0895522,52.6965174 44.8955224,50.0696517 43.7810945,47.2835821 C42.6666667,44.4179104 41.6318408,41.4726368 40.7562189,38.2885572 L44.9751244,38.2885572 C45.2139303,39.1641791 45.4527363,40.199005 45.7711443,41.2338308 C46.0895522,42.2686567 46.4079602,43.3830846 46.8059701,44.4975124 C47.2039801,45.6119403 47.60199,46.7263682 48,47.761194 C48.39801,48.8756219 48.7960199,49.8308458 49.2736318,50.7860697 C49.9900498,48.8756219 50.6268657,46.8059701 51.1840796,44.5771144 C51.8208955,42.4278607 52.3781095,40.278607 52.8557214,38.2089552 L56.9154229,38.2089552 Z" id="Shape"></path>
                    <polygon id="Shape" points="18.6268657 62.4079602 18.6268657 65.9900498 11.7014925 65.9900498 11.7014925 85.0149254 7.56218905 85.0149254 7.56218905 65.9900498 0.63681592 65.9900498 0.63681592 62.4079602"></polygon>
                    <path d="M30.1691542,71.5621891 C29.8507463,71.4825871 29.3731343,71.3233831 28.8159204,71.2437811 C28.2587065,71.1641791 27.5422886,71.0845771 26.8258706,71.0845771 C26.4278607,71.0845771 25.9502488,71.1641791 25.4726368,71.2437811 C24.9950249,71.3233831 24.6766169,71.4029851 24.4378109,71.4825871 L24.4378109,85.1741294 L20.4577114,85.1741294 L20.4577114,68.9353234 C21.2537313,68.6169154 22.2089552,68.3781095 23.3233831,68.1393035 C24.4378109,67.9004975 25.7114428,67.7412935 27.1442786,67.7412935 C27.3830846,67.7412935 27.7014925,67.7412935 28.0199005,67.8208955 C28.3383085,67.8208955 28.7363184,67.9004975 29.0547264,67.9800995 C29.3731343,68.0597015 29.7711443,68.0597015 30.0895522,68.1393035 C30.4079602,68.2189055 30.6467662,68.2985075 30.8855721,68.3781095 L30.1691542,71.5621891 Z" id="Shape"></path>
                    <path d="M37.9701493,62.9651741 C37.9701493,63.681592 37.7313433,64.318408 37.2537313,64.7164179 C36.7761194,65.1144279 36.2189055,65.3532338 35.5820896,65.3532338 C34.9452736,65.3532338 34.3084577,65.1144279 33.8308458,64.7164179 C33.3532338,64.318408 33.1144279,63.681592 33.1144279,62.9651741 C33.1144279,62.1691542 33.3532338,61.6119403 33.8308458,61.1343284 C34.3084577,60.7363184 34.8656716,60.4975124 35.5820896,60.4975124 C36.2189055,60.4975124 36.7761194,60.7363184 37.2537313,61.1343284 C37.7313433,61.6119403 37.9701493,62.2487562 37.9701493,62.9651741 Z M37.5721393,85.0945274 L33.5920398,85.0945274 L33.5920398,68.0597015 L37.5721393,68.0597015 L37.5721393,85.0945274 Z" id="Shape"></path>
                    <path d="M57.9502488,76.5771144 C57.9502488,77.8507463 57.7910448,79.0447761 57.4726368,80.159204 C57.1542289,81.2736318 56.6766169,82.1492537 56.039801,82.9452736 C55.4029851,83.7412935 54.6069652,84.2985075 53.6517413,84.7761194 C52.6965174,85.1741294 51.6616915,85.4129353 50.4676617,85.4129353 C49.6716418,85.4129353 48.9552239,85.3333333 48.238806,85.0945274 C47.60199,84.9353234 47.0447761,84.6965174 46.5671642,84.4577114 L46.5671642,91.0646766 L42.5870647,91.0646766 L42.5870647,68.5373134 C43.3830846,68.2985075 44.4179104,68.1393035 45.5323383,67.9004975 C46.7263682,67.7412935 47.920398,67.5820896 49.2736318,67.5820896 C50.6268657,67.5820896 51.8208955,67.8208955 52.9353234,68.2189055 C53.9701493,68.6169154 54.9253731,69.2537313 55.641791,69.9701493 C56.358209,70.7661692 56.9950249,71.641791 57.3930348,72.7562189 C57.7114428,73.9502488 57.9502488,75.1442786 57.9502488,76.5771144 Z M53.8905473,76.5771144 C53.8905473,74.8258706 53.4925373,73.4726368 52.6965174,72.4378109 C51.9004975,71.4825871 50.6268657,71.0049751 48.8756219,71.0049751 C48.4776119,71.0049751 48.159204,71.0049751 47.681592,71.0845771 C47.2835821,71.0845771 46.8855721,71.1641791 46.4875622,71.3233831 L46.4875622,81.1144279 C46.8059701,81.3532338 47.2835821,81.5920398 47.840796,81.7512438 C48.39801,81.9900498 49.0348259,82.0696517 49.6716418,82.0696517 C51.1044776,82.0696517 52.1393035,81.5920398 52.8557214,80.6368159 C53.5721393,79.60199 53.8905473,78.2487562 53.8905473,76.5771144 Z" id="Shape"></path>
                    <path d="M66.3084577,82.2288557 C67.3432836,82.2288557 68.1393035,82.0696517 68.6169154,81.8308458 C69.0945274,81.5920398 69.3333333,81.1144279 69.3333333,80.5572139 C69.3333333,80 69.0945274,79.5223881 68.5373134,79.1243781 C68.0597015,78.7263682 67.1840796,78.3283582 65.9900498,77.9303483 C65.2736318,77.6915423 64.6368159,77.3731343 64,77.1343284 C63.3631841,76.8159204 62.8855721,76.4975124 62.4875622,76.0995025 C62.0895522,75.7014925 61.6915423,75.2238806 61.4527363,74.6666667 C61.2139303,74.1094527 61.0547264,73.3930348 61.0547264,72.5970149 C61.0547264,71.0049751 61.6119403,69.8109453 62.8059701,68.8557214 C63.920398,67.9800995 65.5124378,67.5024876 67.5024876,67.5024876 C68.5373134,67.5024876 69.4925373,67.5820896 70.3681592,67.7412935 C71.2437811,67.9004975 71.960199,68.1393035 72.4378109,68.2985075 L71.721393,71.4825871 C71.3233831,71.3233831 70.7661692,71.0845771 70.0497512,70.9253731 C69.4129353,70.7661692 68.6169154,70.6865672 67.6616915,70.6865672 C66.8656716,70.6865672 66.2288557,70.8457711 65.6716418,71.0845771 C65.1940299,71.3233831 64.9552239,71.800995 64.9552239,72.358209 C64.9552239,72.6766169 65.0348259,72.9154229 65.1144279,73.0746269 C65.1940299,73.3134328 65.3532338,73.4726368 65.5920398,73.7114428 C65.8308458,73.8706468 66.1492537,74.1094527 66.5472637,74.2686567 C66.9452736,74.4278607 67.4228856,74.6666667 67.9800995,74.8258706 C68.9353234,75.1442786 69.7313433,75.5422886 70.3681592,75.8606965 C71.0049751,76.1791045 71.5621891,76.5771144 71.960199,76.9751244 C72.358209,77.3731343 72.6766169,77.8507463 72.9154229,78.4079602 C73.0746269,78.9651741 73.2338308,79.60199 73.2338308,80.39801 C73.2338308,82.0696517 72.5970149,83.2636816 71.4029851,84.1393035 C70.2089552,85.0149254 68.4577114,85.4129353 66.2288557,85.4129353 C64.7164179,85.4129353 63.5223881,85.2537313 62.5671642,85.0149254 C61.6915423,84.7761194 60.9751244,84.5373134 60.6567164,84.3781095 L61.3731343,81.1144279 C61.9303483,81.3532338 62.6467662,81.5920398 63.4427861,81.8308458 C64.318408,82.1492537 65.2736318,82.2288557 66.3084577,82.2288557 Z" id="Shape"></path>
                </g>
                <path d="M78.9651741,145.59204 C75.2238806,147.18408 71.960199,148.537313 65.0348259,148.537313 C58.1094527,148.537313 54.8457711,147.18408 51.0248756,145.59204 C46.8059701,143.840796 41.9502488,141.771144 32.7960199,141.771144 C23.641791,141.771144 18.7860697,143.761194 14.5671642,145.59204 C10.8258706,147.18408 7.56218905,148.537313 0.55721393,148.537313 L0.55721393,159.522388 C9.71144279,159.522388 14.5671642,157.532338 18.7860697,155.701493 C22.5273632,154.109453 25.7910448,152.756219 32.7960199,152.756219 C39.800995,152.756219 42.9850746,154.109453 46.8059701,155.701493 C51.0248756,157.452736 55.880597,159.522388 65.0348259,159.522388 C74.1890547,159.522388 78.9651741,157.532338 83.2636816,155.701493 C84.7761194,155.064677 86.2089552,154.507463 87.800995,153.950249 L87.800995,142.646766 C84.1393035,143.442786 81.4328358,144.557214 78.9651741,145.59204 Z" id="Shape" fill="#24AAC5"></path>
            </g>
        </g>
    </g>
</svg>