<?xml version="1.0" encoding="UTF-8"?>
<svg width="110px" height="23px" viewBox="0 0 110 23" version="1.1" xmlns="http://www.w3.org/2000/svg" xmlns:xlink="http://www.w3.org/1999/xlink">
    <!-- Generator: Sketch 49 (51002) - http://www.bohemiancoding.com/sketch -->
    <title>Shape</title>
    <desc>Created with Sketch.</desc>
    <defs></defs>
    <g id="Page-1" stroke="none" stroke-width="1" fill="none" fill-rule="evenodd">
        <g id="Coming-Soon" transform="translate(-186.000000, -606.000000)" fill="#24AAC5" fill-rule="nonzero">
            <g id="Group-2" transform="translate(185.000000, 396.000000)">
                <path d="M99.0099502,214.776119 C94.3333333,216.766169 90.2537313,218.457711 81.5970149,218.457711 C72.9402985,218.457711 68.8606965,216.766169 64.0845771,214.776119 C58.8109453,212.587065 52.7412935,210 41.2985075,210 C29.8557214,210 23.7860697,212.487562 18.5124378,214.776119 C13.8358209,216.766169 9.75621891,218.457711 1,218.457711 L1,232.189055 C12.4427861,232.189055 18.5124378,229.701493 23.7860697,227.412935 C28.4626866,225.422886 32.5422886,223.731343 41.2985075,223.731343 C50.0547264,223.731343 54.0348259,225.422886 58.8109453,227.412935 C64.0845771,229.60199 70.1542289,232.189055 81.5970149,232.189055 C93.039801,232.189055 99.0099502,229.701493 104.383085,227.412935 C106.273632,226.616915 108.064677,225.920398 110.054726,225.223881 L110.054726,211.094527 C105.477612,212.089552 102.094527,213.482587 99.0099502,214.776119 Z" id="Shape"></path>
            </g>
        </g>
    </g>
</svg>